<svg width="240" height="144" viewBox="0 0 240 144" fill="none" xmlns="http://www.w3.org/2000/svg">
<path d="M124.636 86.602L132.157 83.8237C133.552 83.3092 133.552 82.466 132.157 81.9501L123.508 78.7559L124.636 86.602Z" fill="black" stroke="white" stroke-width="0.370227"/>
<path d="M125.625 60.932L79.372 77.911C75.4623 79.3469 69.1051 79.3521 65.1718 77.9215L51.5403 72.9706C49.5645 72.254 48.5766 71.3098 48.5766 70.3683L48.5635 95.5099C48.5635 96.4515 49.5514 97.3956 51.5272 98.1122L65.1613 103.066C69.0946 104.494 75.4518 104.489 79.3615 103.055L125.615 86.0763C127.562 85.3623 128.534 84.4259 128.534 83.4923L128.547 58.3506C128.547 59.2843 127.575 60.2206 125.628 60.9346L125.625 60.932Z" fill="white"/>
<mask id="mask0_1_6929" style="mask-type:alpha" maskUnits="userSpaceOnUse" x="48" y="58" width="81" height="47">
<path d="M125.625 60.9329L79.372 77.912C75.4623 79.3478 69.1051 79.3531 65.1718 77.9225L51.5403 72.9715C49.5645 72.2549 48.5766 71.3108 48.5766 70.3692L48.5635 95.5109C48.5635 96.4524 49.5514 97.3966 51.5272 98.1132L65.1613 103.067C69.0946 104.495 75.4518 104.49 79.3615 103.056L125.615 86.0772C127.562 85.3632 128.534 84.4269 128.534 83.4932L128.547 58.3516C128.547 59.2853 127.575 60.2216 125.628 60.9356L125.625 60.9329Z" fill="white"/>
</mask>
<g mask="url(#mask0_1_6929)">
<path d="M72.4143 123.217C73.5938 123.217 74.7718 123.064 75.6607 122.734L131.864 101.952C132.757 101.629 133.204 101.202 133.204 100.777V59.1406L74.7826 80.7474C73.4779 81.2203 72.4097 82.7357 72.4097 84.1144L72.4143 123.217Z" fill="#EBE9E9"/>
</g>
<path d="M117.147 77.8389C117.211 77.8151 117.278 77.8173 117.338 77.8447C117.396 77.8711 117.44 77.9173 117.473 77.9688C117.537 78.0706 117.569 78.2157 117.569 78.375V78.7305C117.569 78.8917 117.536 79.051 117.48 79.1797C117.427 79.3027 117.343 79.4226 117.225 79.4668H117.224L85.8115 90.877C85.7472 90.9009 85.6813 90.8989 85.6211 90.8711C85.5635 90.8444 85.5187 90.7986 85.4863 90.7471C85.4223 90.645 85.3896 90.4998 85.3896 90.3418V89.9863C85.3896 89.8255 85.4227 89.6665 85.4775 89.5381C85.5297 89.416 85.6128 89.2956 85.7324 89.2529L117.147 77.8398V77.8389Z" fill="#D9D9D9" stroke="black" stroke-width="0.222136" stroke-miterlimit="10"/>
<mask id="mask1_1_6929" style="mask-type:alpha" maskUnits="userSpaceOnUse" x="85" y="77" width="33" height="14">
<path d="M117.186 77.9443C117.336 77.888 117.458 78.0818 117.458 78.3756V78.7319C117.458 79.0257 117.336 79.307 117.186 79.3633L85.7734 90.7745C85.6231 90.8307 85.501 90.6338 85.501 90.3432V89.9869C85.501 89.6931 85.62 89.4118 85.7703 89.3586L117.186 77.9443Z" fill="white"/>
</mask>
<g mask="url(#mask1_1_6929)">
<path d="M116.275 77.6503C116.425 77.5941 116.547 77.7879 116.547 78.0817V78.438C116.547 78.7318 116.425 79.0131 116.275 79.0693L84.8623 90.4805C84.712 90.5368 84.5898 90.3399 84.5898 90.0492V89.6929C84.5898 89.3991 84.7088 89.1178 84.8592 89.0647L116.275 77.6503Z" fill="black" stroke="white" stroke-width="0.222136" stroke-miterlimit="10"/>
<path d="M117.459 78.3757C117.459 78.1444 117.383 77.9756 117.277 77.9413C117.005 77.8537 116.641 77.735 116.366 77.6475C116.472 77.6818 116.547 77.8506 116.547 78.0819V78.4382C116.547 78.732 116.425 79.0133 116.275 79.0696L84.8623 90.4808C84.831 90.4933 84.7997 90.4933 84.7715 90.4808C85.0439 90.5683 85.4072 90.6871 85.6828 90.7746C85.7109 90.784 85.7423 90.784 85.7736 90.7746L117.186 79.3634C117.336 79.3071 117.459 79.0258 117.459 78.732V78.3757Z" fill="white" stroke="black" stroke-width="0.222136" stroke-miterlimit="10"/>
</g>
<path d="M117.147 74.1445C117.211 74.1207 117.278 74.123 117.338 74.1504C117.396 74.1767 117.44 74.223 117.473 74.2744C117.537 74.3763 117.569 74.5214 117.569 74.6807V75.0361C117.569 75.1973 117.536 75.3566 117.48 75.4854C117.427 75.6083 117.343 75.7282 117.225 75.7725H117.224L85.8115 87.1826C85.7472 87.2065 85.6813 87.2046 85.6211 87.1768C85.5635 87.1501 85.5187 87.1042 85.4863 87.0527C85.4223 86.9507 85.3896 86.8055 85.3896 86.6475V86.292C85.3896 86.1312 85.4227 85.9722 85.4775 85.8438C85.5297 85.7217 85.6128 85.6013 85.7324 85.5586L117.147 74.1455V74.1445Z" fill="#D9D9D9" stroke="black" stroke-width="0.222136" stroke-miterlimit="10"/>
<mask id="mask2_1_6929" style="mask-type:alpha" maskUnits="userSpaceOnUse" x="85" y="74" width="33" height="14">
<path d="M117.186 74.249C117.336 74.1927 117.458 74.3865 117.458 74.6803V75.0366C117.458 75.3304 117.336 75.6117 117.186 75.668L85.7734 87.0792C85.6231 87.1354 85.501 86.9385 85.501 86.6479V86.2915C85.501 85.9977 85.62 85.7165 85.7703 85.6633L117.186 74.249Z" fill="white"/>
</mask>
<g mask="url(#mask2_1_6929)">
<path d="M116.275 73.955C116.425 73.8988 116.547 74.0926 116.547 74.3864V74.7427C116.547 75.0365 116.425 75.3178 116.275 75.374L84.8623 86.7852C84.712 86.8415 84.5898 86.6446 84.5898 86.3539V85.9976C84.5898 85.7038 84.7088 85.4225 84.8592 85.3694L116.275 73.955Z" fill="black" stroke="white" stroke-width="0.222136" stroke-miterlimit="10"/>
<path d="M117.459 74.6804C117.459 74.4491 117.383 74.2803 117.277 74.2459C117.005 74.1584 116.641 74.0397 116.366 73.9521C116.472 73.9865 116.547 74.1553 116.547 74.3866V74.7429C116.547 75.0367 116.425 75.318 116.275 75.3743L84.8623 86.7855C84.831 86.798 84.7997 86.798 84.7715 86.7855C85.0439 86.873 85.4072 86.9918 85.6828 87.0793C85.7109 87.0886 85.7423 87.0886 85.7736 87.0793L117.186 75.6681C117.336 75.6118 117.459 75.3305 117.459 75.0367V74.6804Z" fill="white" stroke="black" stroke-width="0.222136" stroke-miterlimit="10"/>
</g>
<path d="M125.625 60.932L79.372 77.911C75.4623 79.3469 69.1051 79.3521 65.1718 77.9215L51.5403 72.9706C49.5645 72.254 48.5766 71.3098 48.5766 70.3683L48.5635 95.5099C48.5635 96.4515 49.5514 97.3956 51.5272 98.1122L65.1613 103.066C69.0946 104.494 75.4518 104.489 79.3615 103.055L125.615 86.0763C127.562 85.3623 128.534 84.4259 128.534 83.4923L128.547 58.3506C128.547 59.2843 127.575 60.2206 125.628 60.9346L125.625 60.932Z" stroke="black" stroke-width="0.370227" stroke-miterlimit="10"/>
<path d="M125.583 55.7465C129.517 57.1745 129.535 59.497 125.625 60.9328L79.3718 77.9119C75.4621 79.3477 69.1049 79.353 65.1716 77.9224L51.5401 72.9714C47.6068 71.5434 47.5885 69.221 51.4955 67.7851L97.7489 50.8061C101.659 49.3702 108.016 49.365 111.952 50.793L125.586 55.7465H125.583Z" fill="white" stroke="black" stroke-width="0.370227" stroke-miterlimit="10"/>
<path d="M101.672 59.3607C103.129 59.9015 103.136 60.7812 101.687 61.3251L84.5563 67.7563C83.1082 68.3002 80.7537 68.3021 79.2969 67.7603L74.2481 65.885C72.7913 65.3441 72.7845 64.4644 74.2316 63.9206L91.3628 57.4893C92.8108 56.9455 95.1654 56.9435 96.6231 57.4844L101.673 59.3607H101.672Z" fill="black"/>
<path d="M48.4795 94.1566L50.9356 95.0508C51.5856 95.2884 52.1177 94.9154 52.1177 94.2228V91.2984C52.1 90.9336 51.9796 90.5814 51.7705 90.2822C51.5613 89.9831 51.2719 89.7493 50.9356 89.6079L49.4674 89.0723C49.0366 88.9069 48.6839 88.585 48.4795 88.1709" stroke="black" stroke-width="0.370227" stroke-miterlimit="10" stroke-linecap="round"/>
<path d="M49.8224 92.9108C50.1879 92.7939 50.3455 92.2643 50.1744 91.7278C50.0033 91.1914 49.5683 90.8512 49.2028 90.9681C48.8373 91.0849 48.6797 91.6146 48.8508 92.151C49.0219 92.6875 49.4569 93.0277 49.8224 92.9108Z" fill="black"/>
<path d="M88.6104 62.5095L84.5452 59.9678C84.455 59.9112 84.3749 59.8312 84.3115 59.7246L88.3768 62.2663C88.4402 62.3729 88.5203 62.4529 88.6104 62.5095Z" fill="#EBE9E9" stroke="#EBE9E9" stroke-width="0.370227" stroke-miterlimit="10"/>
<path d="M88.3765 62.2663L84.3112 59.7246L82.8994 57.3994L86.9647 59.9411L88.3765 62.2663Z" fill="#EBE9E9" stroke="#EBE9E9" stroke-width="0.370227" stroke-miterlimit="10"/>
<path d="M100.008 28.9343C99.5042 28.6178 98.8434 28.5512 98.1124 28.8044L73.5374 37.249C71.9186 37.8053 70.5736 39.7174 70.5368 41.5162L70.1897 58.5287C70.1697 59.518 70.5469 60.2642 71.1576 60.6473L75.2229 63.189C74.6121 62.8059 74.2349 62.0564 74.255 61.0704L74.6021 44.0546C74.6388 42.2558 75.9805 40.3437 77.6026 39.7873L102.178 31.3461C102.909 31.0962 103.569 31.1629 104.073 31.476L100.008 28.9343Z" fill="white" stroke="black" stroke-width="0.370227" stroke-miterlimit="10"/>
<path d="M102.177 31.3463C103.796 30.79 105.081 31.7993 105.044 33.5982L104.697 50.6139C104.661 52.4128 103.319 54.3249 101.697 54.8812L91.8575 58.2624L90.3288 61.5969C90.1019 62.0899 89.7214 62.4264 89.3409 62.5563C88.9604 62.6862 88.5866 62.6096 88.3796 62.2665L86.9678 59.9413L77.1251 63.3224C75.5064 63.8788 74.2214 62.8727 74.2581 61.0706L74.6052 44.0548C74.6419 42.256 75.9837 40.3438 77.6057 39.7875L102.177 31.3463Z" fill="#EBE9E9" stroke="black" stroke-width="0.370227" stroke-miterlimit="10"/>
<path d="M88.2793 55.1607L87.2647 54.5244C87.238 54.5077 87.2113 54.4878 87.1846 54.4678L88.1992 55.104C88.2259 55.124 88.2526 55.144 88.2793 55.1607Z" fill="#EBE9E9" stroke="black" stroke-width="0.370227" stroke-miterlimit="10"/>
<path d="M98.5458 38.2282C98.2721 38.0583 97.9283 38.0417 97.5812 38.1616C97.1974 38.2915 96.8135 38.588 96.5132 39.0111L88.356 50.6169L89.3706 51.2532L97.5278 39.6473C97.8249 39.2243 98.212 38.9278 98.5958 38.7979C98.943 38.6779 99.2867 38.6946 99.5604 38.8645L98.5458 38.2282Z" fill="#EBE9E9" stroke="black" stroke-width="0.370227" stroke-miterlimit="10"/>
<path d="M83.4231 48.9686C83.7202 48.5455 84.1073 48.2491 84.4878 48.1192C84.8349 47.9992 85.1787 48.0126 85.4524 48.1858L84.4378 47.5495C84.1641 47.3796 83.8203 47.363 83.4732 47.4829C83.0894 47.6128 82.7055 47.9093 82.4051 48.3323C81.8077 49.1818 81.7877 50.2311 82.3584 50.6808L87.1846 54.4717L88.1993 55.108L83.3731 51.3171C82.8023 50.8674 82.8257 49.8181 83.4198 48.9686H83.4231Z" fill="#EBE9E9" stroke="black" stroke-width="0.370227" stroke-miterlimit="10"/>
<path d="M98.596 38.7978C98.9798 38.6679 99.357 38.6978 99.644 38.921C100.215 39.3674 100.191 40.4201 99.5973 41.2695L90.4021 54.3511C90.105 54.7742 89.7212 55.064 89.3407 55.1939C88.8667 55.3572 88.4896 55.3272 88.2059 55.104L83.3797 51.3131C82.8089 50.8634 82.8323 49.814 83.4264 48.9646C83.7234 48.5415 84.1106 48.245 84.4911 48.1151C84.8716 47.9852 85.2521 48.0152 85.5391 48.2384L89.3741 51.2531L97.5313 39.6472C97.8283 39.2242 98.2155 38.9277 98.5993 38.7978H98.596Z" fill="#66DD8C" stroke="black" stroke-width="0.370227" stroke-miterlimit="10"/>
<path d="M188.373 104.716L195.894 101.938C197.289 101.423 197.289 100.58 195.894 100.064L187.245 96.8701L188.373 104.716Z" fill="black" stroke="white" stroke-width="0.370227"/>
<path d="M187.371 88.5839L160.964 98.2781C157.625 99.5044 152.194 99.5089 148.834 98.2893L122.271 88.6397C120.586 88.0277 119.742 87.2235 119.742 86.4172L119.738 103.047C119.738 103.851 120.582 104.655 122.267 105.27L148.83 114.919C152.189 116.139 157.619 116.134 160.96 114.908L187.366 105.214C189.029 104.604 189.86 103.804 189.86 103.007L189.864 86.377C189.864 87.1744 189.034 87.9741 187.371 88.5839Z" fill="white"/>
<path d="M187.335 84.155C190.694 85.3746 190.71 87.3581 187.371 88.5844L160.964 98.2787C157.625 99.505 152.194 99.5095 148.834 98.2899L122.271 88.6403C118.912 87.4207 118.896 85.4371 122.238 84.2108L148.642 74.5166C151.981 73.2903 157.411 73.2858 160.77 74.5054L187.333 84.155H187.335Z" fill="white" stroke="black" stroke-width="0.370227" stroke-miterlimit="10"/>
<mask id="mask3_1_6929" style="mask-type:alpha" maskUnits="userSpaceOnUse" x="119" y="86" width="71" height="30">
<path d="M187.371 88.5839L160.964 98.2781C157.625 99.5044 152.194 99.5089 148.834 98.2893L122.271 88.6397C120.586 88.0277 119.742 87.2235 119.742 86.4172L119.738 103.047C119.738 103.851 120.582 104.655 122.267 105.27L148.83 114.919C152.189 116.139 157.619 116.134 160.96 114.908L187.366 105.214C189.029 104.604 189.86 103.804 189.86 103.007L189.864 86.377C189.864 87.1744 189.034 87.9741 187.371 88.5839Z" fill="white"/>
</mask>
<g mask="url(#mask3_1_6929)">
<path d="M156.066 116.224C157.246 116.224 158.424 116.07 159.313 115.74L189.311 104.896C190.205 104.574 190.651 104.147 190.651 103.722V88.2393L158.435 99.9076C157.13 100.38 156.062 101.896 156.062 103.275L156.066 116.224Z" fill="#EBE9E9"/>
</g>
<path d="M187.371 88.5829L160.964 98.2772C157.625 99.5035 152.194 99.5079 148.834 98.2883L122.271 88.6387C120.586 88.0267 119.742 87.2226 119.742 86.4162L119.738 103.046C119.738 103.85 120.582 104.654 122.267 105.269L148.83 114.918C152.189 116.138 157.619 116.133 160.96 114.907L187.366 105.213C189.029 104.603 189.86 103.803 189.86 103.006L189.864 86.376C189.864 87.1734 189.034 87.9731 187.371 88.5829V88.5829Z" stroke="black" stroke-width="0.370227" stroke-miterlimit="10"/>
<path d="M160.036 94.7779L179.55 87.5543C183.171 86.2166 183.171 84.0243 179.55 82.6828L157.109 74.3779L160.036 94.7779Z" fill="black"/>
<path d="M177.172 78.9542L163.743 65.4954C163.386 65.1399 162.962 64.9011 162.508 64.7954L151.377 62.1496C151.832 62.2579 152.256 62.4941 152.613 62.8495L166.042 76.3084C166.775 77.0432 167.066 78.1376 166.823 79.2339C166.58 80.3302 165.849 81.1985 164.873 81.5574L146.973 88.156C146.469 88.3415 145.955 88.3725 145.473 88.2572L156.603 90.903C157.086 91.0184 157.599 90.9874 158.104 90.8019L176.003 84.2032C176.982 83.8415 177.711 82.9735 177.954 81.8798C178.196 80.7835 177.906 79.6917 177.172 78.9542Z" fill="black" stroke="black" stroke-width="0.370227" stroke-miterlimit="10"/>
<path d="M151.683 60.8791C150.999 60.7155 150.265 60.7613 149.552 61.0235C148.162 61.5351 147.124 62.7694 146.776 64.3272L142.309 84.3829C141.961 85.9407 142.377 87.4938 143.419 88.54C143.925 89.0453 144.528 89.38 145.171 89.5355L156.3 92.1812C155.655 92.0286 155.055 91.6935 154.549 91.1856C153.506 90.1394 153.091 88.5863 153.438 87.0285L157.906 66.9729C158.253 65.4151 159.292 64.1808 160.681 63.6692C161.398 63.4066 162.129 63.3611 162.812 63.5247L151.683 60.8791Z" fill="white" stroke="black" stroke-width="0.370227" stroke-miterlimit="10"/>
<path d="M177.995 77.9729C179.038 79.0192 179.453 80.5723 179.106 82.1302C178.758 83.6855 177.723 84.9221 176.333 85.4337L158.434 92.0322C157.047 92.5435 155.593 92.2247 154.551 91.181C153.508 90.1348 153.093 88.5816 153.44 87.0238L157.908 66.9673C158.255 65.4094 159.294 64.175 160.684 63.6634C162.073 63.1517 163.524 63.4683 164.567 64.5145L177.995 77.9729ZM177.956 81.8756C178.199 80.7793 177.908 79.6876 177.175 78.9501L163.746 65.4917C163.01 64.7572 161.988 64.5312 161.013 64.8926C160.037 65.2541 159.305 66.1224 159.063 67.2186L154.592 87.2755C154.35 88.3717 154.64 89.4635 155.373 90.2009C156.109 90.9354 157.131 91.1588 158.107 90.7974L176.006 84.199C176.984 83.8372 177.713 82.9692 177.956 81.8756Z" fill="white"/>
<path d="M177.956 81.8756C178.199 80.7793 177.908 79.6876 177.175 78.9501L163.746 65.4917C163.01 64.7572 161.988 64.5312 161.013 64.8926C160.037 65.2541 159.305 66.1224 159.063 67.2186L154.592 87.2755C154.35 88.3717 154.64 89.4635 155.373 90.2009C156.109 90.9354 157.131 91.1588 158.107 90.7974L176.006 84.199C176.984 83.8372 177.713 82.9692 177.956 81.8756M177.995 77.9729C179.038 79.0192 179.453 80.5723 179.106 82.1302C178.758 83.6855 177.723 84.9221 176.333 85.4337L158.434 92.0322C157.047 92.5435 155.593 92.2247 154.551 91.181C153.508 90.1348 153.093 88.5816 153.44 87.0238L157.908 66.9673C158.255 65.4094 159.294 64.175 160.684 63.6634C162.073 63.1517 163.524 63.4683 164.567 64.5145L177.995 77.9729V77.9729Z" stroke="black" stroke-width="0.370227" stroke-miterlimit="10"/>
<path d="M162.602 91.4869C161.545 94.3815 159.128 96.183 156.632 95.2765L135.566 87.6149C133.01 86.6853 132.382 83.7726 133.439 80.878L156.029 19.0076C157.087 16.1131 159.548 14.3248 162 15.2099L183.067 22.8797C185.431 23.7399 186.25 26.722 185.195 29.6166L162.602 91.4869Z" fill="white" stroke="black" stroke-width="0.370227" stroke-miterlimit="10" stroke-linecap="round"/>
<path fill-rule="evenodd" clip-rule="evenodd" d="M169.232 73.3312C168.69 73.2982 168.138 73.1852 167.584 72.9845L139.979 62.9658L133.439 80.8785C132.382 83.7731 133.01 86.6858 135.566 87.6154L156.632 95.2769C159.128 96.1835 161.545 94.382 162.602 91.4874L169.232 73.3312Z" fill="black"/>
<path d="M169.232 73.3312L169.406 73.3947L169.491 73.1615L169.243 73.1465L169.232 73.3312ZM167.584 72.9845L167.521 73.1585L167.521 73.1585L167.584 72.9845ZM139.979 62.9658L140.042 62.7918L139.869 62.7288L139.805 62.9023L139.979 62.9658ZM133.439 80.8785L133.613 80.942L133.613 80.942L133.439 80.8785ZM135.566 87.6154L135.63 87.4414H135.63L135.566 87.6154ZM156.632 95.2769L156.568 95.4509L156.568 95.4509L156.632 95.2769ZM162.602 91.4874L162.776 91.551L162.776 91.5509L162.602 91.4874ZM169.232 73.3312L169.243 73.1465C168.719 73.1145 168.185 73.0053 167.647 72.8104L167.584 72.9845L167.521 73.1585C168.091 73.3651 168.66 73.4819 169.221 73.516L169.232 73.3312ZM167.584 72.9845L167.648 72.8105L140.042 62.7918L139.979 62.9658L139.916 63.1398L167.521 73.1585L167.584 72.9845ZM133.439 80.8785L133.613 80.942L140.153 63.0293L139.979 62.9658L139.805 62.9023L133.265 80.815L133.439 80.8785ZM135.566 87.6154L135.63 87.4414C134.412 86.9988 133.655 86.0875 133.326 84.9329C132.994 83.7727 133.094 82.3617 133.613 80.942L133.439 80.8785L133.265 80.815C132.726 82.2899 132.612 83.7824 132.97 85.0346C133.329 86.2924 134.164 87.3024 135.503 87.7893L135.566 87.6154ZM156.632 95.2769L156.695 95.103L135.63 87.4414L135.566 87.6154L135.503 87.7893L156.568 95.4509L156.632 95.2769ZM162.602 91.4874L162.428 91.4239C161.91 92.8422 161.063 93.9808 160.054 94.6536C159.049 95.3237 157.881 95.5338 156.695 95.103L156.632 95.2769L156.568 95.4509C157.878 95.9266 159.168 95.6892 160.259 94.9616C161.347 94.2367 162.237 93.0273 162.776 91.551L162.602 91.4874ZM169.232 73.3312L169.058 73.2677L162.428 91.424L162.602 91.4874L162.776 91.5509L169.406 73.3947L169.232 73.3312Z" fill="black"/>
<path d="M185.546 25.8413C185.546 25.8413 185.16 24.5203 184.666 24.0151L182.454 23.1895L182.682 24.8274L185.546 25.8413Z" fill="black"/>
<path d="M185.195 29.6152C185.395 29.0719 185.53 28.5072 185.599 27.9326L183.197 27.0889L158.42 93.5248L160.789 94.2926C161.612 93.5105 162.235 92.5443 162.609 91.474L185.195 29.6152Z" fill="black"/>
<path d="M160.79 94.2941C161.612 93.512 162.235 92.5459 162.609 91.4755L169.891 71.4941" stroke="#EBE9E9" stroke-width="0.370227" stroke-miterlimit="10" stroke-linecap="round"/>
<path d="M160.506 90.7183C159.449 93.6129 157.032 95.4143 154.536 94.5078L133.465 86.8463C131.224 86.0372 130.282 83.0039 131.34 80.1094L153.93 18.2439C154.987 15.3494 157.448 13.5611 159.901 14.4462L180.966 22.1094C183.332 22.9697 184.151 25.9517 183.094 28.8463L160.506 90.7183Z" fill="#EBE9E9" stroke="black" stroke-width="0.370227" stroke-miterlimit="10" stroke-linecap="round"/>
<path d="M180.409 41.6956C180.508 41.4232 180.367 41.1218 180.094 41.0225C179.821 40.9233 179.519 41.0637 179.42 41.3361L177.241 47.306C177.141 47.5785 177.282 47.8798 177.555 47.9791C177.828 48.0784 178.13 47.938 178.229 47.6655L180.409 41.6956Z" fill="white" stroke="black" stroke-width="0.370227" stroke-miterlimit="10" stroke-linecap="round"/>
<path d="M180.551 23.0209C173.573 20.4858 166.554 18.122 159.638 15.4188C157.618 14.6857 155.593 16.1569 154.722 18.5396L132.132 80.3984C131.262 82.7811 132.032 85.2694 133.882 85.9431L154.797 93.5485C156.847 94.2949 158.84 92.8121 159.71 90.4294L182.301 28.564C183.171 26.1813 182.496 23.7276 180.551 23.0209Z" fill="white"/>
<path d="M156.542 29.7991C155.269 29.3373 153.631 30.6036 152.894 32.6262L144.785 54.8647C144.048 56.8873 144.485 58.9074 145.759 59.3693L146.13 59.5038C144.856 59.0419 144.419 57.0193 145.156 54.9992L153.265 32.7607C154.002 30.7381 155.637 29.4718 156.914 29.9336L156.542 29.7991Z" fill="white" stroke="black" stroke-width="0.370227" stroke-miterlimit="10"/>
<path d="M172.716 34.5935C174.323 35.1771 174.875 37.7251 173.944 40.273L165.836 62.5115C164.908 65.0594 162.843 66.6582 161.236 66.0745L145.41 60.3239C143.803 59.7403 143.254 57.1923 144.182 54.6444L152.291 32.4059C153.219 29.858 155.281 28.2592 156.888 28.8429L172.714 34.5935H172.716Z" fill="#66DD8C" stroke="black" stroke-width="0.370227" stroke-miterlimit="10"/>
<path d="M173.087 34.7312L172.716 34.5967C174.323 35.1804 174.875 37.7283 173.944 40.2762L165.836 62.5147C164.907 65.0627 162.843 66.6614 161.236 66.0778L161.607 66.2123C163.214 66.796 165.276 65.1972 166.207 62.6492L174.315 40.4107C175.243 37.8628 174.694 35.3149 173.087 34.7312Z" fill="black" stroke="black" stroke-width="0.370227" stroke-miterlimit="10"/>
<path d="M158.131 47.309C161.493 48.5297 162.873 53.4098 161.572 58.6884C161.333 59.6553 160.565 60.3379 159.97 60.1222L148.469 55.9451C147.874 55.7293 147.727 54.7142 148.167 53.8209C150.569 48.9408 154.77 46.0883 158.131 47.309Z" fill="white" stroke="black" stroke-width="0.370227" stroke-miterlimit="10"/>
<path d="M158.131 47.3086L159.059 47.6461C162.421 48.8668 163.802 53.7469 162.5 59.0255C162.261 59.9924 161.493 60.6751 160.898 60.4593L159.97 60.1218C160.565 60.3375 161.333 59.6574 161.572 58.688C162.873 53.4069 161.49 48.5293 158.131 47.3086Z" fill="black" stroke="black" stroke-width="0.370227" stroke-miterlimit="10"/>
<path d="M162.672 34.8604L163.601 35.1979C165.597 35.9237 166.281 39.0756 165.124 42.2427C163.969 45.4073 161.414 47.3868 159.418 46.6635L158.49 46.326C160.486 47.0518 163.041 45.0724 164.196 41.9052C165.35 38.7381 164.668 35.5836 162.672 34.8604Z" fill="black" stroke="black" stroke-width="0.370227" stroke-miterlimit="10"/>
<path d="M164.196 41.9024C165.351 38.7362 164.668 35.5815 162.672 34.8563C160.675 34.131 158.121 36.1097 156.966 39.2759C155.811 42.4421 156.494 45.5967 158.491 46.322C160.487 47.0473 163.042 45.0686 164.196 41.9024Z" fill="white" stroke="black" stroke-width="0.370227" stroke-miterlimit="10"/>
<path d="M154.404 75.6451C155.236 75.9471 155.518 77.2591 155.037 78.5762C154.557 79.8933 153.494 80.7181 152.662 80.4161L141.269 76.277C140.44 75.975 140.155 74.6629 140.636 73.3433C141.116 72.0237 142.179 71.204 143.008 71.5059L154.402 75.6451H154.404Z" fill="#050505" stroke="black" stroke-width="0.370227" stroke-miterlimit="10"/>
<path d="M146.128 75.6369C146.108 75.7353 146.094 75.8276 146.085 75.9155C145.923 76.0351 145.791 76.1365 145.688 76.2183C145.619 76.2682 145.566 76.3136 145.531 76.3515L145.488 76.1198C145.553 76.0532 145.6 75.9806 145.628 75.9003L145.892 75.1493L145.722 75.0858L145.81 74.8359L146.138 74.9601L145.817 75.87C145.864 75.8428 145.968 75.764 146.128 75.6354V75.6369Z" fill="white"/>
<path d="M146.427 74.6491L146.223 74.7763C146.204 74.6325 146.178 74.4599 146.143 74.2585L146.327 74.1465C146.36 74.3024 146.393 74.4705 146.427 74.6476V74.6491Z" fill="white"/>
<path d="M146.96 74.8601C146.712 75.6943 146.667 76.306 146.825 76.6906C146.806 76.7057 146.774 76.739 146.728 76.789C146.678 76.8389 146.643 76.8738 146.621 76.8965C146.51 76.5437 146.514 76.1077 146.633 75.5868C146.419 76.035 146.138 76.3832 145.789 76.6285C145.785 76.521 145.777 76.4286 145.764 76.3484C146.165 76.1137 146.49 75.6428 146.74 74.9358C146.766 74.8631 146.809 74.7465 146.869 74.5891L146.939 74.3877L147.111 74.4513C147.048 74.6315 146.997 74.7677 146.96 74.8601Z" fill="white"/>
<path d="M148.031 77.0769L148.41 77.2192L148.329 77.4478L147.248 77.0421L147.33 76.8134L147.5 76.877L147.947 75.6068L148.106 75.6673L147.658 76.9376L147.867 77.0148L148.445 75.3751L147.987 75.2025L148.075 74.9512L149.047 75.3161L148.957 75.5674L148.609 75.4372L148.383 76.0761L148.688 76.1912L148.603 76.4304L148.3 76.3168L148.031 77.0769Z" fill="white"/>
<path d="M147.572 76.3022C147.534 76.4233 147.506 76.5263 147.49 76.611C147.377 76.6973 147.235 76.8064 147.063 76.9381L147.031 76.6989C147.084 76.6504 147.131 76.5702 147.17 76.4566L147.428 75.7253L147.276 75.6678L147.364 75.418L147.675 75.5346L147.336 76.4945C147.349 76.4854 147.379 76.4611 147.423 76.4263C147.489 76.3673 147.538 76.3264 147.571 76.3007L147.572 76.3022Z" fill="white"/>
<path d="M147.917 75.2447L147.714 75.3494C147.706 75.2038 147.689 75.0263 147.665 74.8215L147.848 74.7305C147.851 74.7472 147.855 74.776 147.86 74.8154C147.886 75.0141 147.905 75.1583 147.915 75.2447H147.917Z" fill="white"/>
<path d="M119.696 101.829L122.152 102.724C122.802 102.961 123.334 102.588 123.334 101.896V98.9712C123.316 98.6065 123.196 98.2542 122.987 97.9551C122.778 97.6559 122.488 97.4222 122.152 97.2808L120.684 96.7451C120.253 96.5797 119.9 96.2579 119.696 95.8438" stroke="black" stroke-width="0.370227" stroke-miterlimit="10" stroke-linecap="round"/>
<path d="M121.039 100.583C121.405 100.466 121.562 99.9362 121.391 99.3997C121.22 98.8632 120.785 98.5231 120.42 98.64C120.054 98.7568 119.897 99.2865 120.068 99.8229C120.239 100.359 120.674 100.7 121.039 100.583Z" fill="black"/>
<path d="M161.656 108.929C162.021 109.046 162.179 109.576 162.008 110.112C161.837 110.648 161.402 110.989 161.036 110.872C160.671 110.755 160.513 110.225 160.684 109.689C160.855 109.152 161.29 108.812 161.656 108.929Z" fill="black"/>
<path d="M190.454 114.681L195.732 112.763C196.712 112.408 196.712 111.826 195.732 111.47L189.662 109.266L190.454 114.681Z" fill="black" stroke="white" stroke-width="0.370227"/>
<path d="M190.51 114.667L185.795 116.356C185.33 116.522 184.913 116.013 185.17 115.592L190.773 106.378C191.048 105.926 191.745 106.119 191.745 106.648V112.493C191.745 113.981 190.922 114.562 190.51 114.667Z" fill="#EBE9E9" stroke="black" stroke-width="0.370227"/>
<path d="M183.197 103.493C183.458 103.066 183.986 102.884 184.456 103.057L190.963 105.453C191.582 105.681 191.838 106.416 191.492 106.978L185.954 115.997C185.692 116.423 185.164 116.606 184.694 116.433L178.187 114.037C177.568 113.809 177.313 113.074 177.658 112.512L183.197 103.493Z" fill="white" stroke="black" stroke-width="0.370227"/>
<mask id="mask4_1_6929" style="mask-type:alpha" maskUnits="userSpaceOnUse" x="177" y="102" width="15" height="15">
<path d="M183.197 103.493C183.458 103.066 183.986 102.884 184.456 103.057L190.963 105.453C191.582 105.681 191.838 106.416 191.492 106.978L185.954 115.997C185.692 116.423 185.164 116.606 184.694 116.433L178.187 114.037C177.568 113.809 177.313 113.074 177.658 112.512L183.197 103.493Z" fill="#2D3033"/>
</mask>
<g mask="url(#mask4_1_6929)">
<path fill-rule="evenodd" clip-rule="evenodd" d="M183.149 107.092C182.914 107.006 182.65 107.098 182.519 107.312L178.35 114.138C178.179 114.419 178.306 114.786 178.616 114.9L182.97 116.503C183.205 116.59 183.469 116.498 183.6 116.284L187.769 109.457C187.94 109.176 187.812 108.809 187.503 108.696L183.149 107.092Z" fill="white" stroke="black" stroke-width="0.370227"/>
</g>
<path d="M183.197 103.493C183.458 103.066 183.986 102.884 184.456 103.057L190.963 105.453C191.582 105.681 191.838 106.416 191.492 106.978L185.954 115.997C185.692 116.423 185.164 116.606 184.694 116.433L178.187 114.037C177.568 113.809 177.313 113.074 177.658 112.512L183.197 103.493Z" stroke="black" stroke-width="0.370227"/>
<ellipse cx="0.785979" cy="1.04635" rx="0.785979" ry="1.04635" transform="matrix(0.94901 0.315246 -0.316344 0.948645 182.332 110.639)" fill="black"/>
<path d="M160.904 109.731C161.009 109.466 161.309 109.335 161.576 109.439L171.311 113.262L171.361 113.288C171.993 113.619 174.233 114.244 177.038 113.23C180.124 112.115 181.836 111.524 182.315 111.364C182.587 111.274 182.881 111.421 182.971 111.691C183.061 111.962 182.915 112.254 182.643 112.345C182.178 112.5 180.475 113.088 177.39 114.203C174.315 115.314 171.778 114.671 170.886 114.207L170.878 114.203L170.872 114.2L161.196 110.401C160.929 110.297 160.799 109.997 160.904 109.731Z" fill="black" stroke="black" stroke-width="0.296181" stroke-linecap="round"/>
<path d="M177.214 113.718C180.3 112.602 182.007 112.012 182.479 111.855M164.622 111.192L161.386 109.921M167.859 112.462L166.24 111.827" stroke="#66DD8C" stroke-width="0.592363" stroke-linecap="round"/>
<path fill-rule="evenodd" clip-rule="evenodd" d="M49.2494 91.9133C49.3491 92.1845 49.2097 92.485 48.938 92.5846C48.0122 92.9238 47.3333 93.2333 46.8831 93.4598C46.6103 93.597 46.4344 93.8902 46.4344 94.2436V97.5574C46.4344 98.4305 46.9775 99.2117 47.7969 99.5173L70.912 108.139C73.7642 109.203 76.9063 109.198 79.7552 108.125L98.3704 101.438C101.409 100.294 104.757 100.27 107.811 101.372L116.005 103.855C116.688 104.102 117.41 103.596 117.41 102.871V101.742C117.41 100.874 117.947 100.096 118.76 99.7869L120.499 99.1257C120.769 99.0229 121.072 99.1584 121.175 99.4283C121.278 99.6983 121.142 100.001 120.872 100.103L119.133 100.765C118.726 100.919 118.458 101.308 118.458 101.742V102.871C118.458 104.321 117.016 105.332 115.649 104.839L107.455 102.356C104.636 101.339 101.545 101.361 98.7404 102.417L80.1252 109.104C77.0389 110.266 73.635 110.272 70.5451 109.119L47.43 100.497C46.2009 100.039 45.3862 98.867 45.3862 97.5574V94.2436C45.3862 93.5448 45.7427 92.862 46.4113 92.5256C46.8971 92.2812 47.6129 91.9557 48.5768 91.6025C48.8485 91.5029 49.1496 91.6421 49.2494 91.9133Z" fill="black" stroke="black" stroke-width="0.370227" stroke-linecap="round"/>
<path fill-rule="evenodd" clip-rule="evenodd" d="M48.1126 92.338C48.1793 92.498 48.1033 92.6817 47.943 92.7483C47.4629 92.9475 47.0798 93.127 46.7891 93.2732C46.437 93.4504 46.2246 93.8219 46.2246 94.2442V94.7095C46.2246 94.8828 46.0838 95.0233 45.9102 95.0233C45.7365 95.0233 45.5957 94.8828 45.5957 94.7095V94.2442C45.5957 93.6143 45.9168 93.0092 46.5061 92.7127C46.8103 92.5597 47.2072 92.3738 47.7015 92.1687C47.8619 92.1021 48.046 92.1779 48.1126 92.338ZM120.291 99.7649C120.353 99.9269 120.271 100.108 120.109 100.17L119.058 100.57C118.57 100.755 118.248 101.222 118.248 101.743V102.884C118.248 103.058 118.107 103.198 117.933 103.198C117.76 103.198 117.619 103.058 117.619 102.884V101.743C117.619 100.961 118.103 100.261 118.834 99.983L119.885 99.5834C120.047 99.5217 120.229 99.603 120.291 99.7649ZM45.9102 95.5614C46.0838 95.5614 46.2246 95.7019 46.2246 95.8753V97.0411C46.2246 97.2144 46.0838 97.3549 45.9102 97.3549C45.7365 97.3549 45.5957 97.2144 45.5957 97.0411V95.8753C45.5957 95.7019 45.7365 95.5614 45.9102 95.5614Z" fill="#66DD8C"/>
<path fill-rule="evenodd" clip-rule="evenodd" d="M99.2002 101.706C99.2589 101.869 99.1739 102.049 99.0105 102.108L97.4865 102.654C97.323 102.712 97.1429 102.627 97.0843 102.464C97.0256 102.301 97.1106 102.121 97.274 102.063L98.798 101.517C98.9614 101.458 99.1415 101.543 99.2002 101.706ZM96.1522 102.798C96.2109 102.961 96.1259 103.141 95.9625 103.2L89.8666 105.383C89.7031 105.442 89.523 105.357 89.4644 105.194C89.4057 105.031 89.4906 104.851 89.6541 104.793L95.75 102.609C95.9135 102.55 96.0936 102.635 96.1522 102.798Z" fill="#66DD8C"/>
<path d="M99.2002 101.706C99.2589 101.869 99.1739 102.049 99.0105 102.108L97.4865 102.654C97.323 102.712 97.1429 102.627 97.0843 102.464C97.0256 102.301 97.1106 102.121 97.274 102.063L98.798 101.517C98.9614 101.458 99.1415 101.543 99.2002 101.706Z" fill="#66DD8C"/>
<path d="M96.1522 102.798C96.2109 102.961 96.1259 103.141 95.9625 103.2L89.8666 105.383C89.7031 105.442 89.523 105.357 89.4644 105.194C89.4057 105.031 89.4906 104.851 89.6541 104.793L95.75 102.609C95.9135 102.55 96.0936 102.635 96.1522 102.798Z" fill="#66DD8C"/>
<path d="M140.325 118.154C143.684 119.374 143.7 121.357 140.361 122.583L113.954 132.278C110.615 133.504 105.183 133.509 101.824 132.289L75.261 122.639C71.9017 121.42 71.8861 119.436 75.2274 118.21L101.632 108.516C104.971 107.289 110.4 107.285 113.76 108.504L140.323 118.154H140.325Z" fill="#EBE9E9" stroke="black" stroke-width="0.370227" stroke-miterlimit="10"/>
<path d="M126.793 124.372L130.42 123.054C131.093 122.81 131.093 122.41 130.42 122.166L126.249 120.65L126.793 124.372Z" fill="black"/>
<path d="M99.5894 116.42C100.927 116.42 102.255 116.605 103.251 116.968H103.252L119.079 122.695C119.579 122.877 119.94 123.082 120.173 123.291C120.406 123.5 120.498 123.7 120.498 123.876C120.498 124.052 120.406 124.252 120.173 124.461C119.941 124.67 119.582 124.874 119.084 125.056L114.889 126.407L114.882 126.41C113.883 126.773 112.553 126.958 111.215 126.958C110.044 126.958 108.881 126.817 107.941 126.538L107.552 126.41L91.7241 120.683C91.2242 120.501 90.8631 120.295 90.6304 120.086C90.3982 119.877 90.3073 119.677 90.3071 119.501C90.3071 119.325 90.3981 119.125 90.6304 118.916C90.862 118.708 91.2207 118.503 91.7173 118.322L95.9155 116.97L95.9214 116.968C96.9211 116.604 98.2512 116.42 99.5894 116.42Z" fill="white" stroke="black" stroke-width="0.370227" stroke-miterlimit="10" stroke-linecap="round"/>
<path d="M128.525 122.815C128.72 123.114 128.585 123.517 128.25 123.64L118.758 127.123L118.114 118.897L123.905 115.723L128.525 122.815Z" fill="#EBE9E9" stroke="black" stroke-width="0.370227"/>
<path d="M94.9097 106.021C95.1946 105.414 95.8956 105.124 96.5259 105.354L122.954 114.978C123.669 115.238 124.007 116.056 123.684 116.745L119.132 126.446C118.847 127.053 118.146 127.343 117.516 127.113L91.0874 117.49C90.3723 117.23 90.0347 116.412 90.3579 115.723L94.9097 106.021Z" fill="white" stroke="black" stroke-width="0.370227"/>
<path d="M95.7775 108.723C96.1015 108.033 96.8969 107.701 97.6153 107.957L119.828 115.873C120.651 116.166 121.043 117.105 120.672 117.896L117.966 123.663C117.642 124.354 116.847 124.685 116.128 124.429L93.9157 116.514C93.0922 116.22 92.7008 115.281 93.0721 114.49L95.7775 108.723Z" fill="black"/>
<mask id="mask5_1_6929" style="mask-type:alpha" maskUnits="userSpaceOnUse" x="92" y="107" width="29" height="18">
<path d="M95.7775 108.723C96.1015 108.033 96.8969 107.701 97.6153 107.957L119.828 115.873C120.651 116.166 121.043 117.105 120.672 117.896L117.966 123.663C117.642 124.354 116.847 124.685 116.128 124.429L93.9157 116.514C93.0922 116.22 92.7008 115.281 93.0721 114.49L95.7775 108.723Z" fill="black"/>
</mask>
<g mask="url(#mask5_1_6929)">
<path d="M95.1048 114.664L94.2899 114.363L93.7458 115.518L94.5608 115.819L95.1048 114.664Z" fill="#66DD8C"/>
<path d="M115.023 119.101L114.208 118.801L113.664 119.956L114.479 120.256L115.023 119.101Z" fill="#66DD8C"/>
<path d="M111.4 113.577L110.585 113.276L110.041 114.431L110.856 114.732L111.4 113.577Z" fill="#66DD8C"/>
<path d="M98.1215 112.409L97.3066 112.109L95.3605 116.088L96.1754 116.388L98.1215 112.409Z" fill="#66DD8C"/>
<path d="M103.516 113.373L102.701 113.073L100.755 117.051L101.569 117.352L103.516 113.373Z" fill="#66DD8C"/>
<path d="M106.325 111.728L105.51 111.428L103.564 115.407L104.379 115.707L106.325 111.728Z" fill="#66DD8C"/>
<path d="M115.046 114.806L114.231 114.506L112.285 118.485L113.1 118.785L115.046 114.806Z" fill="#66DD8C"/>
<path d="M118.496 119.889L117.681 119.589L115.735 123.568L116.55 123.868L118.496 119.889Z" fill="#66DD8C"/>
<path d="M109.325 113.885L108.51 113.585L106.161 118.262L106.976 118.562L109.325 113.885Z" fill="#66DD8C"/>
<path d="M100.544 111.443L99.7286 111.142L98.3316 113.936L99.1465 114.236L100.544 111.443Z" fill="#66DD8C"/>
<path d="M101.107 114.233L100.292 113.932L99.3233 115.902L100.138 116.202L101.107 114.233Z" fill="#66DD8C"/>
<path d="M107.331 113.789L106.516 113.489L105.547 115.458L106.362 115.759L107.331 113.789Z" fill="#66DD8C"/>
<path d="M113.242 114.18L112.427 113.88L111.459 115.849L112.274 116.149L113.242 114.18Z" fill="#66DD8C"/>
<path d="M116.143 120.76L115.328 120.46L114.359 122.429L115.174 122.729L116.143 120.76Z" fill="#66DD8C"/>
<path d="M110.556 115.283L109.741 114.983L108.758 116.978L109.573 117.278L110.556 115.283Z" fill="#66DD8C"/>
<path d="M117.017 118.988L116.202 118.688L115.658 119.842L116.473 120.143L117.017 118.988Z" fill="#66DD8C"/>
<path d="M110.609 119.716L109.794 119.416L109.25 120.571L110.065 120.871L110.609 119.716Z" fill="#66DD8C"/>
<path d="M103.813 116.782L102.998 116.481L102.454 117.636L103.269 117.937L103.813 116.782Z" fill="#66DD8C"/>
<path d="M99.0135 110.592L98.1985 110.292L97.6545 111.447L98.4695 111.747L99.0135 110.592Z" fill="#66DD8C"/>
<path d="M101.205 110.094L100.39 109.794L100.022 110.512L100.837 110.812L101.205 110.094Z" fill="#66DD8C"/>
<path d="M119.41 118.108L118.595 117.808L118.051 118.963L118.866 119.263L119.41 118.108Z" fill="#66DD8C"/>
</g>
<path d="M95.9448 108.802C96.2283 108.198 96.9246 107.908 97.5532 108.132L119.766 116.047C120.486 116.304 120.829 117.125 120.504 117.817L117.798 123.585C117.515 124.189 116.819 124.479 116.191 124.255L93.978 116.34C93.2575 116.083 92.9149 115.261 93.2397 114.568L95.9448 108.802Z" stroke="black" stroke-width="0.370227"/>
</svg>
